<svg width="13" height="13" viewBox="0 0 13 13" fill="none" xmlns="http://www.w3.org/2000/svg">
<path d="M1.4502 0.5H2.70215C3.18557 0.500083 3.58837 0.859272 3.64551 1.33984L3.85547 3.16211C3.88859 3.45211 3.78875 3.73456 3.58594 3.9375L2.24707 5.27637L1.99121 5.5332L2.1543 5.85645C3.24468 8.00693 5.00105 9.75493 7.14258 10.8447L7.4668 11.0098L7.72363 10.7529L9.05469 9.4209C9.25775 9.21791 9.54085 9.11904 9.83105 9.15234L11.6699 9.3623V9.36133C12.1516 9.41984 12.5046 9.82366 12.5 10.293V11.5498C12.5 12.098 12.0446 12.5295 11.5332 12.498C5.61173 12.1301 0.869866 7.39508 0.501953 1.4668C0.470448 0.955358 0.902022 0.5 1.4502 0.5Z" fill="#212121" stroke="black"/>
</svg>
